<svg width="16" height="15" viewBox="0 0 16 15" fill="none" xmlns="http://www.w3.org/2000/svg">
<path d="M11.627 11.5828C11.7451 11.4253 11.8829 11.4007 12.0404 11.509C12.1978 11.6172 12.2274 11.7501 12.1289 11.9076C12.0108 12.0651 11.8829 12.2127 11.7451 12.3505C11.6663 12.4489 11.5581 12.5572 11.4203 12.6753C11.3612 12.7147 11.3022 12.7344 11.2431 12.7344C11.1447 12.7344 11.0659 12.7048 11.0069 12.6458C10.8691 12.4883 10.8789 12.3505 11.0364 12.2324C11.1545 12.134 11.253 12.0355 11.3317 11.9371C11.4498 11.819 11.5482 11.7009 11.627 11.5828ZM10.3573 12.6753C10.5344 12.5966 10.6673 12.6458 10.7559 12.8229C10.8445 13.0001 10.8002 13.1281 10.623 13.2068C10.6033 13.2265 10.5935 13.2363 10.5935 13.2363C10.5541 13.256 10.5148 13.2659 10.4754 13.2659C10.3376 13.2659 10.249 13.2068 10.2096 13.0887C10.1309 12.8918 10.1801 12.754 10.3573 12.6753ZM14.2549 0.893722C14.4124 0.893722 14.5601 0.933092 14.6979 1.01183C14.8357 1.09057 14.9439 1.19884 15.0227 1.33664C15.1014 1.47443 15.1408 1.62207 15.1408 1.77956V10.0473C15.1408 10.2048 15.1014 10.3525 15.0227 10.4903C14.9439 10.628 14.8357 10.7363 14.6979 10.8151C14.5601 10.8938 14.4124 10.9332 14.2549 10.9332H13.812C13.5955 11.8584 13.1427 12.6655 12.4537 13.3544C12.0994 13.6891 11.7303 13.9598 11.3465 14.1665C10.9626 14.3732 10.6722 14.4765 10.4754 14.4765C10.2785 14.4765 9.98818 14.3732 9.60432 14.1665C9.22046 13.9598 8.85136 13.6891 8.49703 13.3544C7.80804 12.6655 7.34544 11.8584 7.10922 10.9332H0.908386C0.672164 10.9332 0.465469 10.8446 0.288303 10.6674C0.111136 10.4903 0.0225525 10.2836 0.0225525 10.0473V1.77956C0.0225525 1.54333 0.111136 1.33664 0.288303 1.15947C0.465469 0.982306 0.672164 0.893722 0.908386 0.893722H14.2549ZM13.3691 9.72253V8.27567C12.3652 7.98039 11.4006 7.567 10.4754 7.0355C9.55018 7.567 8.58561 7.98039 7.58166 8.27567V9.72253C7.58166 10.9824 8.02458 12.0454 8.91041 12.9115C9.10727 13.1084 9.32872 13.2905 9.57479 13.4578C9.82085 13.6251 10.0177 13.7383 10.1653 13.7974C10.313 13.8564 10.4163 13.8859 10.4754 13.8859C10.5344 13.8859 10.6329 13.8564 10.7707 13.7974C10.9085 13.7383 11.1004 13.6251 11.3465 13.4578C11.5925 13.2905 11.8238 13.1084 12.0404 12.9115C12.9262 12.0454 13.3691 10.9824 13.3691 9.72253ZM14.5502 10.0473V5.02761H0.613108V10.0473C0.613108 10.2442 0.711534 10.3426 0.908386 10.3426H7.02064C7.00095 10.1458 6.99111 9.93907 6.99111 9.72253V8.03944C6.99111 7.90165 7.06001 7.81307 7.1978 7.77369C8.30017 7.45873 9.34349 7.01582 10.3277 6.44495C10.4262 6.38589 10.5246 6.38589 10.623 6.44495C11.6073 7.01582 12.6506 7.45873 13.753 7.77369C13.8908 7.81307 13.9597 7.90165 13.9597 8.03944V9.72253C13.9597 9.93907 13.9498 10.1458 13.9301 10.3426H14.2549C14.4518 10.3426 14.5502 10.2442 14.5502 10.0473ZM14.5502 4.43706V3.25594H0.613108V4.43706H14.5502ZM14.5502 2.66539V1.77956C14.5502 1.5827 14.4518 1.48428 14.2549 1.48428H0.908386C0.711534 1.48428 0.613108 1.5827 0.613108 1.77956V2.66539H14.5502ZM3.56589 7.09456C3.80211 7.09456 4.02357 7.15361 4.23026 7.27172C4.43696 7.38983 4.59936 7.55224 4.71747 7.75893C4.83558 7.96563 4.89464 8.18708 4.89464 8.42331C4.89464 8.79732 4.76668 9.11229 4.51078 9.3682C4.25487 9.6241 3.9399 9.75206 3.56589 9.75206C3.38872 9.75206 3.2214 9.71269 3.06391 9.63395C2.88675 9.71269 2.70958 9.75206 2.53241 9.75206C2.1584 9.75206 1.84343 9.6241 1.58752 9.3682C1.33162 9.11229 1.20366 8.79732 1.20366 8.42331C1.20366 8.18708 1.26272 7.96563 1.38083 7.75893C1.49894 7.55224 1.66134 7.38983 1.86804 7.27172C2.07473 7.15361 2.29619 7.09456 2.53241 7.09456C2.70958 7.09456 2.88675 7.13393 3.06391 7.21267C3.2214 7.13393 3.38872 7.09456 3.56589 7.09456ZM2.01568 8.94004C2.01568 8.94004 2.05259 8.97695 2.12641 9.05077C2.20023 9.12459 2.33556 9.1615 2.53241 9.1615C2.72927 9.1615 2.90151 9.08768 3.04915 8.94004C3.19679 8.7924 3.27061 8.62016 3.27061 8.42331C3.27061 8.22645 3.19679 8.05421 3.04915 7.90657C2.90151 7.75893 2.72927 7.68511 2.53241 7.68511C2.33556 7.68511 2.16332 7.75893 2.01568 7.90657C1.86804 8.05421 1.79422 8.22645 1.79422 8.42331C1.79422 8.62016 1.86804 8.7924 2.01568 8.94004ZM3.62494 9.1615C3.82179 9.14182 3.9842 9.06308 4.11215 8.92528C4.2401 8.78748 4.30408 8.62016 4.30408 8.42331C4.30408 8.3052 4.27455 8.19201 4.2155 8.08374C4.15644 7.97547 4.0777 7.88688 3.97928 7.81799C3.88085 7.74909 3.76274 7.7048 3.62494 7.68511C3.78242 7.90165 3.86116 8.14771 3.86116 8.42331C3.86116 8.6989 3.78242 8.94496 3.62494 9.1615ZM3.00486 5.76581C3.20171 5.76581 3.30014 5.86423 3.30014 6.06108C3.30014 6.25794 3.20171 6.35636 3.00486 6.35636H1.49894C1.30209 6.35636 1.20366 6.25794 1.20366 6.06108C1.20366 5.86423 1.30209 5.76581 1.49894 5.76581H3.00486ZM3.89069 5.76581C4.08754 5.76581 4.18597 5.86423 4.18597 6.06108C4.18597 6.25794 4.08754 6.35636 3.89069 6.35636C3.69384 6.35636 3.59541 6.25794 3.59541 6.06108C3.59541 5.86423 3.69384 5.76581 3.89069 5.76581ZM11.686 9.04339C11.8238 8.90559 11.9616 8.90559 12.0994 9.04339C12.2372 9.18119 12.2372 9.31898 12.0994 9.45678L10.2982 11.258C10.2392 11.317 10.1703 11.3466 10.0915 11.3466C10.0128 11.3466 9.94389 11.317 9.88483 11.258L8.85136 10.2245C8.71356 10.0867 8.71356 9.94399 8.85136 9.79635C8.98916 9.64871 9.12695 9.64379 9.26475 9.78158L10.0915 10.6084L11.686 9.04339Z" fill="white"/>
</svg>
