<svg width="16" height="16" viewBox="0 0 16 16" fill="none" xmlns="http://www.w3.org/2000/svg">
<path d="M14.8044 0.265665C14.9028 0.206625 15.0012 0.206625 15.0996 0.265665C15.198 0.324705 15.2472 0.413266 15.2472 0.531346V12.1328C15.2472 12.2312 15.2078 12.3099 15.1291 12.3689C15.07 12.4083 15.011 12.428 14.952 12.428C14.9323 12.428 14.9028 12.428 14.8634 12.428L10.7601 11.1586L8.57561 13.2841C8.53625 13.3431 8.46737 13.3726 8.36897 13.3726C8.32961 13.3726 8.30009 13.3628 8.28041 13.3431C8.22137 13.3234 8.17217 13.2841 8.13281 13.225L6.24352 9.77115L1.93358 8.47227C1.8155 8.43291 1.74662 8.34927 1.72694 8.22135C1.70726 8.09343 1.75646 7.99011 1.87454 7.91139L7.12912 4.81177C7.30625 4.71337 7.44401 4.74781 7.54241 4.91509C7.64081 5.08237 7.61129 5.21521 7.45385 5.31361L2.76014 8.08851L6.33208 9.18075L13.5645 1.68263L9.69738 3.9852C9.52026 4.0836 9.3825 4.04916 9.2841 3.88188C9.18569 3.7146 9.22506 3.58176 9.40218 3.48336L14.8044 0.265665ZM8.13281 9.94828L12.5313 3.63096L6.8044 9.56451L8.07377 11.9261V10.1254C8.07377 10.0664 8.09345 10.0073 8.13281 9.94828ZM8.66417 12.3689L10.1107 10.952L8.66417 10.5092V12.3689ZM14.6568 11.7195V1.59407L8.87081 9.94828L14.6568 11.7195ZM4.56087 10.5092C4.69863 10.3714 4.83639 10.3714 4.97415 10.5092C5.11191 10.6469 5.11191 10.7847 4.97415 10.9224L2.22878 13.6678C2.16974 13.7269 2.10086 13.7564 2.02214 13.7564C1.94342 13.7564 1.87454 13.7269 1.8155 13.6678C1.67774 13.5301 1.67774 13.3923 1.8155 13.2545L4.56087 10.5092ZM0.900372 14.1697C1.03813 14.0319 1.17589 14.0319 1.31365 14.1697C1.45141 14.3074 1.45141 14.4452 1.31365 14.5829L0.63469 15.2619C0.57565 15.3209 0.50677 15.3505 0.428049 15.3505C0.349329 15.3505 0.280449 15.3209 0.221408 15.2619C0.0836476 15.1241 0.0836476 14.9864 0.221408 14.8486L0.900372 14.1697ZM4.13283 14.7305C4.13283 14.7305 4.15497 14.7305 4.19925 14.7305C4.24353 14.7305 4.29519 14.7601 4.35423 14.8191C4.41327 14.8781 4.44279 14.9519 4.44279 15.0405C4.44279 15.1291 4.41327 15.1979 4.35423 15.2471C4.29519 15.2963 4.22139 15.3209 4.13283 15.3209C4.04427 15.3209 3.97539 15.2963 3.92619 15.2471C3.87699 15.1979 3.85239 15.1291 3.85239 15.0405C3.85239 14.9519 3.87699 14.8781 3.92619 14.8191C3.97539 14.7601 4.04427 14.7305 4.13283 14.7305ZM6.12544 12.6346C6.2632 12.4968 6.40096 12.4968 6.53872 12.6346C6.67648 12.7724 6.67648 12.9101 6.53872 13.0479L5.09223 14.5239C5.03319 14.5633 4.95939 14.5829 4.87083 14.5829C4.78227 14.5829 4.70847 14.5633 4.64943 14.5239C4.51167 14.3665 4.51167 14.2189 4.64943 14.0811L6.12544 12.6346ZM11.1734 12.5165C11.3111 12.3788 11.4489 12.3788 11.5867 12.5165C11.7244 12.6543 11.7244 12.7921 11.5867 12.9298L10.1107 14.4058C10.0516 14.4649 9.98274 14.4944 9.90402 14.4944C9.8253 14.4944 9.75642 14.4649 9.69738 14.4058C9.55962 14.2681 9.55962 14.1303 9.69738 13.9925L11.1734 12.5165ZM8.29517 4.16233C8.29517 4.16233 8.31731 4.16233 8.36159 4.16233C8.40587 4.16233 8.45261 4.19185 8.50181 4.25089C8.55101 4.30993 8.57561 4.38373 8.57561 4.47229C8.57561 4.56085 8.55101 4.62973 8.50181 4.67893C8.45261 4.72813 8.38373 4.75273 8.29517 4.75273C8.20661 4.75273 8.13281 4.72813 8.07377 4.67893C8.01473 4.62973 7.98521 4.56085 7.98521 4.47229C7.98521 4.38373 8.01473 4.30993 8.07377 4.25089C8.13281 4.19185 8.20661 4.16233 8.29517 4.16233Z" fill="white"/>
</svg>
