<svg width="370" height="55" viewBox="0 0 370 55" fill="none" xmlns="http://www.w3.org/2000/svg">
<path d="M302.49 15.339C316.944 10.458 329.291 7.15692 347.436 3.32092C364.121 -0.206084 369.831 -0.818021 369.23 0.984979C368.395 3.49098 337.966 14.7499 308.548 23.4369C288.595 29.3289 286.028 29.7119 283.265 27.2119C281.04 25.1989 280.961 22.9399 282.949 18.1809C283.781 16.1899 284.241 14.338 283.97 14.068C283.039 13.137 265.51 21.1129 253.668 27.8559C247.146 31.57 235.803 38.4918 228.462 43.2378C216.098 51.2318 213.487 52.4228 209.436 51.9158C207.03 51.6148 205.291 48.5979 205.949 45.8669C206.863 42.0729 212.676 33.7339 220.71 24.6949C224.684 20.2229 229.232 15.026 230.816 13.146L233.697 9.72692L229.816 10.4239C223.883 11.4889 204.517 17.4599 195.76 20.9239C184.643 25.3219 167.249 34.2728 150.643 44.1388C133.954 54.0548 128.737 55.9499 124.952 53.4689C123.005 52.1939 122.438 50.9779 122.445 48.0939C122.458 43.0229 126.482 36.3629 136.481 24.8669C144.711 15.4039 144.732 15.3659 141.84 15.0829C133.848 14.3029 95.6779 27.3028 71.4359 39.0608C52.6349 48.1808 49.8969 49.1839 47.4259 47.8619C42.8979 45.4379 43.8608 42.491 54.4968 26.23C62.3128 14.282 63.4699 11.8669 61.3789 11.8669C57.8449 11.8669 30.0408 25.0549 12.0458 35.2679C4.46282 39.5709 1.84382 40.6209 0.816819 39.7689C-1.54918 37.8049 0.976818 35.318 11.6658 29.09C38.4098 13.505 60.1379 4.66295 66.1109 6.93395C70.3649 8.55095 68.8549 13.877 60.1059 28.116C55.9708 34.846 52.6978 40.4619 52.8328 40.5969C52.9678 40.7319 59.7428 37.4809 67.8898 33.3729C93.9128 20.2509 125.389 9.1659 139.508 8.1499C147.977 7.5409 151.071 8.56596 152.006 12.288C152.852 15.659 150.688 19.242 141.136 30.282C136.514 35.624 131.701 41.8309 130.439 44.0749L128.145 48.1569L130.77 47.4979C133.529 46.8059 134.785 46.0908 156.436 32.8998C178.31 19.5728 198.417 10.7229 218.931 5.39294C229.315 2.69594 239.272 2.10289 241.236 4.06689C242.913 5.74389 242.733 10.999 240.907 13.604C240.067 14.804 234.914 20.852 229.456 27.042C223.999 33.233 219.682 38.4459 219.863 38.6269C220.043 38.8079 225.759 35.3139 232.564 30.8639C254.051 16.8099 277.373 5.86694 285.836 5.86694C291.533 5.86694 292.823 7.48694 292.21 13.8719C291.946 16.6189 291.8 18.8669 291.886 18.8669C291.973 18.8669 296.744 17.28 302.49 15.339Z" fill="#A4B1BB"/>
</svg>
